<svg fill="none" xmlns="http://www.w3.org/2000/svg" viewBox="0 0 1301 1298"><g clip-path="url(#a)" fill="#000"><path d="M431 0H0v431h431V0Zm-59 372H60V60h312v312Z"/><path d="M309 122H122v187h187V122ZM869 0v431h432V0H869Zm372 372H929V60h312v312Z"/><path d="M1179 122H991v187h188V122ZM0 1295h431V864H0v431Zm60-371h312v311H60V924Z"/><path d="M309 986H122v187h187V986ZM122 493H0v62h122v-62ZM370 558h63v59H309v186h187v-62H370v-62h126v62h61V617h-63V496H370v62Z"/><path d="M738 679v62h-61v62h-61v62h-59v62h-61V803h61v-62h61v-62h120ZM864 986V865h-61v59H618v62h60v65h-60v-65h-61v64h-63v62h63v61h-63v122h124v-122h60v-62h61V986h125ZM800 1173v62h186v62h188v-62h-127v-124h-61v62H800ZM800 1235H679v62h121v-62ZM866 617H738v62h128v-62ZM1230 679v61h61v63h-61v-63h-61v63h-61v-63h-61V617h121v-60h-62v-62h123v122h64v62h-63Z"/><path d="M677 803v62h61v-62h61v-62h-61v62h-61ZM800 1111h-61v62h61v-62ZM1169 1111h-61v62h61v-62ZM926 741h-62v62h62v-62ZM866 617h61v-60h123v-62H866v122ZM61 617H0v186h61V617ZM555 496h2v121h61v-64h61v-57h125V247h-61v65h-64v61h64v62h-64v-62h-61v62h-63V248h61V0h-61v62h-61v124h61v61h-61v249h61Z"/><path d="M1230 926v65h-61v-65h-61V803h-61v-63h-61v63h-60v183h-62v62h56v63h66v-63h61v-62h61v62h61v63h61v123h61V926h-61Zm-183-2h-60v-60h60v60Z"/><path d="M1230 803h-61v123h61V803ZM1108 1048h-61v63h61v-63ZM803 61V0H679v125h64V61h60ZM743 186h-64v61h64v-61ZM806 125h-63v61h63v-61ZM244 741h-61v62h61v-62ZM244 682V496h-61v59h-61v186h61v-59h61Z"/></g><defs><clipPath id="a"><path fill="#fff" d="M0 0h1301v1297H0z"/></clipPath></defs></svg>